# Blender v2.90.1 OBJ File: 'tree.blend'
# www.blender.org
v -0.707107 0.000000 -0.707107
v -1.000000 0.000000 0.000000
v -0.707107 2.000000 0.707107
v 0.707107 0.000000 0.707107
v 1.414214 7.500000 -1.414214
v 0.000000 9.500000 0.000000
v 2.000000 7.500000 0.000000
v -2.000000 7.500000 0.000000
v -1.414214 7.500000 -1.414214
v 0.000000 7.500000 2.000000
v 2.121320 5.000000 -2.121320
v -2.121320 5.000000 -2.121320
v -0.353553 7.500000 -0.353553
v -0.353553 7.500000 0.353553
v 2.121320 5.000000 2.121320
v -2.828427 2.000000 -2.828427
v -0.707107 5.000000 -0.707107
v -1.000000 5.000000 0.000000
v 0.707107 2.000000 -0.707107
v 1.000000 2.000000 0.000000
v 1.000000 0.000000 0.000000
v 0.707107 0.000000 -0.707107
v 0.000000 2.000000 -1.000000
v 0.707107 5.000000 -0.707107
v 1.000000 5.000000 0.000000
v 4.000000 2.000000 0.000000
v 2.828427 2.000000 -2.828427
v 0.000000 5.000000 -1.000000
v 0.000000 2.000000 -4.000000
v 3.000000 5.000000 0.000000
v 0.353553 7.500000 -0.353553
v 0.500000 7.500000 0.000000
v 0.000000 5.000000 -3.000000
v 0.000000 7.500000 -0.500000
v 0.000000 7.500000 -2.000000
v 0.000000 0.000000 -1.000000
v -0.707107 2.000000 -0.707107
v -1.000000 2.000000 0.000000
v -4.000000 2.000000 0.000000
v -3.000000 5.000000 0.000000
v -0.500000 7.500000 0.000000
v -0.707107 0.000000 0.707107
v 0.000000 2.000000 1.000000
v -2.828427 2.000000 2.828427
v -0.707107 5.000000 0.707107
v 0.000000 5.000000 1.000000
v -0.000000 2.000000 4.000000
v -2.121320 5.000000 2.121320
v -0.000000 5.000000 3.000000
v 0.000000 7.500000 0.500000
v -1.414214 7.500000 1.414214
v 0.000000 0.000000 1.000000
v 0.707107 2.000000 0.707107
v 2.828427 2.000000 2.828427
v 0.707107 5.000000 0.707107
v 0.353553 7.500000 0.353553
v 1.414214 7.500000 1.414214
vt 0.000977 0.999023
vt 0.249023 0.999023
vt 0.249023 0.000977
vt 0.000977 0.000977
vt 0.249023 0.999023
vt 0.249023 0.000977
vt 0.000977 0.999023
vt 0.000977 0.000977
vt 0.249023 0.999023
vt 0.249023 0.000977
vt 0.000977 0.999023
vt 0.000977 0.000977
vt 0.249023 0.999023
vt 0.249023 0.000977
vt 0.000977 0.999023
vt 0.000977 0.000977
vt 0.250977 0.250977
vt 0.999023 0.250977
vt 0.638672 0.999023
vt 0.999023 0.250977
vt 0.250977 0.250977
vt 0.999023 0.250977
vt 0.250977 0.250977
vt 0.999023 0.250977
vt 0.250977 0.250977
vt 0.550781 0.999023
vt 0.704102 0.999023
vt 0.999023 0.250977
vt 0.250977 0.250977
vt 0.704102 0.999023
vt 0.999023 0.250977
vt 0.550781 0.999023
vt 0.250977 0.250977
vt 0.704102 0.999023
vt 0.999023 0.250977
vt 0.550781 0.999023
vt 0.250977 0.250977
vt 0.704102 0.999023
vt 0.999023 0.250977
vt 0.550781 0.999023
vt 0.250977 0.250977
vt 0.504883 0.999023
vt 0.773438 0.999023
vt 0.999023 0.250977
vt 0.250977 0.250977
vt 0.773438 0.999023
vt 0.999023 0.250977
vt 0.504883 0.999023
vt 0.250977 0.250977
vt 0.773438 0.999023
vt 0.999023 0.250977
vt 0.504883 0.999023
vt 0.250977 0.250977
vt 0.773438 0.999023
vt 0.999023 0.250977
vt 0.504883 0.999023
vt 0.250977 0.250977
vt 0.250977 0.249023
vt 0.533203 0.000977
vt 0.999023 0.249023
vt 0.748047 0.000977
vt 0.250977 0.249023
vt 0.250977 0.249023
vt 0.533203 0.000977
vt 0.999023 0.249023
vt 0.748047 0.000977
vt 0.250977 0.249023
vt 0.999023 0.249023
vt 0.748047 0.000977
vt 0.250977 0.249023
vt 0.250977 0.249023
vt 0.533203 0.000977
vt 0.533203 0.000977
vt 0.533203 0.000977
vt 0.533203 0.000977
vt 0.999023 0.249023
vt 0.748047 0.000977
vt 0.250977 0.249023
vt 0.999023 0.249023
vt 0.748047 0.000977
vt 0.250977 0.249023
vt 0.748047 0.000977
vt 0.250977 0.249023
vt 0.999023 0.249023
vt 0.533203 0.000977
vt 0.533203 0.000977
vt 0.533203 0.000977
vt 0.999023 0.249023
vt 0.250977 0.249023
vt 0.748047 0.000977
vt 0.999023 0.249023
vt 0.250977 0.249023
vt 0.748047 0.000977
vt 0.250977 0.249023
vt 0.999023 0.249023
vt 0.748047 0.000977
vt 0.533203 0.000977
vt 0.533203 0.000977
vt 0.533203 0.000977
vt 0.999023 0.249023
vt 0.748047 0.000977
vt 0.999023 0.249023
vt 0.748047 0.000977
vt 0.999023 0.249023
vt 0.748047 0.000977
vt 0.037598 0.575684
vt 0.002441 0.489746
vt 0.123535 0.610840
vt 0.037598 0.404785
vt 0.123535 0.369629
vt 0.208496 0.404785
vt 0.243652 0.489746
vt 0.208496 0.575684
vn 0.7972 0.0000 -0.6038
vn 0.9906 -0.0000 0.1368
vn 0.9906 -0.0000 -0.1368
vn 0.7972 -0.0000 -0.6037
vn 0.6038 -0.0000 -0.7972
vn 0.1368 0.0000 -0.9906
vn 0.6037 0.0000 -0.7972
vn -0.1368 0.0000 -0.9906
vn -0.6038 0.0000 -0.7972
vn -0.7972 -0.0000 -0.6038
vn -0.9906 0.0000 -0.1368
vn -0.6037 -0.0000 -0.7972
vn -0.7972 0.0000 -0.6037
vn -0.9906 0.0000 0.1368
vn -0.7972 0.0000 0.6038
vn -0.7972 -0.0000 0.6037
vn -0.6038 -0.0000 0.7972
vn -0.1368 0.0000 0.9906
vn -0.6037 0.0000 0.7972
vn 0.1368 0.0000 0.9906
vn 0.6038 0.0000 0.7972
vn 0.6037 -0.0000 0.7972
vn 0.7972 -0.0000 0.6038
vn 0.7972 0.0000 0.6037
vn 0.5000 0.7071 -0.5000
vn -0.0000 0.7071 -0.7071
vn 0.0001 1.0000 0.0000
vn 0.7071 0.7071 0.0000
vn 0.0000 1.0000 0.0001
vn 0.0000 1.0000 -0.0001
vn -0.5000 0.7071 -0.5000
vn -0.7071 0.7071 0.0000
vn -0.0001 1.0000 -0.0000
vn -0.5000 0.7071 0.5000
vn 0.0000 0.7071 0.7071
vn 0.5000 0.7071 0.5000
vn 0.6401 0.6906 -0.3366
vn 0.6906 0.6907 0.2145
vn 0.7069 0.7069 -0.0225
vn 0.6401 0.6907 -0.3366
vn 0.4839 0.7069 -0.5158
vn 0.2145 0.6906 -0.6906
vn 0.4840 0.7069 -0.5158
vn -0.0225 0.7069 -0.7069
vn 0.6401 0.6906 -0.3367
vn 0.2145 0.6907 -0.6906
vn -0.3366 0.6906 -0.6401
vn -0.5158 0.7069 -0.4839
vn -0.6906 0.6906 -0.2145
vn -0.3366 0.6907 -0.6401
vn -0.5158 0.7069 -0.4840
vn -0.7069 0.7069 0.0225
vn -0.3367 0.6906 -0.6401
vn -0.6906 0.6907 -0.2145
vn -0.6401 0.6906 0.3366
vn -0.6401 0.6907 0.3366
vn -0.4839 0.7069 0.5158
vn -0.2145 0.6906 0.6906
vn -0.4840 0.7069 0.5158
vn 0.0225 0.7069 0.7069
vn -0.6401 0.6906 0.3367
vn -0.2145 0.6907 0.6906
vn 0.3366 0.6906 0.6401
vn 0.6906 0.6906 0.2145
vn 0.3366 0.6907 0.6401
vn 0.5158 0.7069 0.4839
vn 0.5158 0.7069 0.4840
vn 0.3367 0.6906 0.6401
vn 0.6262 0.6940 -0.3552
vn 0.6940 0.6940 0.1916
vn 0.7067 0.7067 -0.0325
vn 0.4767 0.7067 -0.5227
vn 0.1916 0.6940 -0.6940
vn -0.0325 0.7067 -0.7067
vn -0.3552 0.6940 -0.6262
vn -0.5227 0.7067 -0.4767
vn -0.6940 0.6940 -0.1916
vn -0.7067 0.7067 0.0325
vn -0.6262 0.6940 0.3552
vn -0.4767 0.7067 0.5227
vn -0.1916 0.6940 0.6940
vn 0.0325 0.7067 0.7067
vn 0.3552 0.6940 0.6262
vn 0.5227 0.7067 0.4767
vn 0.0000 -1.0000 0.0000
s off
f 19/1/1 20/2/2 21/3/3
f 19/1/4 22/4/5 23/5/6
f 19/1/1 21/3/3 22/4/7
f 23/5/6 22/4/5 36/6/8
f 23/5/6 36/6/8 37/7/9
f 1/8/10 38/9/11 37/7/12
f 37/7/9 36/6/8 1/8/13
f 1/8/10 2/10/14 38/9/11
f 2/10/14 3/11/15 38/9/11
f 3/11/16 42/12/17 43/13/18
f 2/10/14 42/12/19 3/11/15
f 43/13/18 42/12/17 52/14/20
f 43/13/18 52/14/20 53/15/21
f 20/2/2 53/15/22 4/16/23
f 53/15/21 52/14/20 4/16/24
f 20/2/2 4/16/23 21/3/3
f 5/17/25 35/18/26 6/19/27
f 7/20/28 5/17/25 6/19/29
f 6/19/30 9/21/31 8/22/32
f 35/18/26 9/21/31 6/19/27
f 6/19/33 51/23/34 10/24/35
f 6/19/30 8/22/32 51/23/34
f 7/20/28 6/19/29 57/25/36
f 57/25/36 6/19/33 10/24/35
f 31/26/37 32/27/38 30/28/39
f 31/26/40 11/29/41 34/30/42
f 34/30/42 11/29/43 33/31/44
f 30/28/39 11/29/43 31/26/45
f 34/30/46 33/31/44 13/32/47
f 12/33/48 41/34/49 13/32/50
f 12/33/51 40/35/52 41/34/49
f 13/32/53 33/31/44 12/33/51
f 41/34/54 40/35/52 14/36/55
f 14/36/56 48/37/57 50/38/58
f 50/38/58 48/37/59 49/39/60
f 14/36/61 40/35/52 48/37/59
f 50/38/62 49/39/60 56/40/63
f 32/27/64 56/40/65 15/41/66
f 30/28/39 32/27/64 15/41/67
f 56/40/68 49/39/60 15/41/67
f 24/42/69 25/43/70 26/44/71
f 24/42/69 27/45/72 28/46/73
f 28/46/73 27/45/72 29/47/74
f 27/45/72 24/42/69 26/44/71
f 29/47/74 17/48/75 28/46/73
f 17/48/75 16/49/76 18/50/77
f 16/49/76 39/51/78 18/50/77
f 17/48/75 29/47/74 16/49/76
f 18/50/77 39/51/78 45/52/79
f 45/52/79 44/53/80 46/54/81
f 46/54/81 44/53/80 47/55/82
f 39/51/78 44/53/80 45/52/79
f 55/56/83 46/54/81 47/55/82
f 25/43/70 55/56/83 54/57/84
f 26/44/71 25/43/70 54/57/84
f 55/56/83 47/55/82 54/57/84
f 26/58/85 20/59/85 27/60/85
f 27/60/85 19/61/85 29/62/85
f 30/63/85 25/64/85 11/65/85
f 11/65/85 24/66/85 33/67/85
f 5/68/85 31/69/85 35/70/85
f 7/71/85 32/72/85 5/68/85
f 19/61/85 23/73/85 29/62/85
f 27/60/85 20/59/85 19/61/85
f 24/66/85 28/74/85 33/67/85
f 11/65/85 25/64/85 24/66/85
f 31/69/85 34/75/85 35/70/85
f 5/68/85 32/72/85 31/69/85
f 23/73/85 16/76/85 29/62/85
f 37/77/85 39/78/85 16/76/85
f 28/74/85 12/79/85 33/67/85
f 17/80/85 40/81/85 12/79/85
f 13/82/85 8/83/85 9/84/85
f 34/75/85 9/84/85 35/70/85
f 37/77/85 38/85/85 39/78/85
f 23/73/85 37/77/85 16/76/85
f 17/80/85 18/86/85 40/81/85
f 28/74/85 17/80/85 12/79/85
f 13/82/85 41/87/85 8/83/85
f 34/75/85 13/82/85 9/84/85
f 38/85/85 44/88/85 39/78/85
f 47/89/85 44/88/85 3/90/85
f 18/86/85 48/91/85 40/81/85
f 49/92/85 48/91/85 45/93/85
f 10/94/85 51/95/85 14/96/85
f 41/87/85 51/95/85 8/83/85
f 43/97/85 47/89/85 3/90/85
f 3/90/85 44/88/85 38/85/85
f 46/98/85 49/92/85 45/93/85
f 45/93/85 48/91/85 18/86/85
f 10/94/85 14/96/85 50/99/85
f 14/96/85 51/95/85 41/87/85
f 54/100/85 47/89/85 43/97/85
f 26/58/85 54/100/85 53/101/85
f 15/102/85 49/92/85 46/98/85
f 30/63/85 15/102/85 55/103/85
f 7/71/85 57/104/85 56/105/85
f 57/104/85 10/94/85 50/99/85
f 26/58/85 53/101/85 20/59/85
f 54/100/85 43/97/85 53/101/85
f 30/63/85 55/103/85 25/64/85
f 15/102/85 46/98/85 55/103/85
f 7/71/85 56/105/85 32/72/85
f 57/104/85 50/99/85 56/105/85
f 42/106/85 2/107/85 52/108/85
f 2/107/85 1/109/85 52/108/85
f 1/109/85 36/110/85 52/108/85
f 36/110/85 22/111/85 52/108/85
f 22/111/85 21/112/85 52/108/85
f 52/108/85 21/112/85 4/113/85
